<svg version="1.1" xmlns="http://www.w3.org/2000/svg" xmlns:xlink="http://www.w3.org/1999/xlink" width="72.42939" height="82.88781" viewBox="0,0,72.42939,82.88781"><g transform="translate(-203.7853,-133.50804)"><g data-paper-data="{&quot;isPaintingLayer&quot;:true}" fill-rule="nonzero" stroke="none" stroke-width="1" stroke-linecap="butt" stroke-linejoin="miter" stroke-miterlimit="10" stroke-dasharray="" stroke-dashoffset="0" style="mix-blend-mode: normal"><path d="M241.35216,216.22323c-0.77491,0.20187 -1.86889,0.22791 -2.59821,0.07163c-0.6577,-0.14977 -1.50423,-0.52745 -2.09029,-0.95072c-0.54048,-0.3842 -1.31538,-1.21771 -1.67353,-1.80377c-0.16279,-0.26047 -2.22703,-4.13499 -4.59081,-8.6151c-2.37029,-4.4736 -6.58342,-12.44404 -9.36396,-17.71208c-2.78704,-5.26153 -7.35181,-13.89617 -10.14537,-19.17723c-2.78705,-5.28106 -5.32014,-10.06072 -5.61317,-10.61422c-0.90514,-1.69306 -1.12654,-2.16191 -1.30887,-2.76751c-0.15628,-0.52094 -0.17582,-0.69025 -0.18233,-1.59539c-0.00651,-1.16561 0.08465,-1.66051 0.48187,-2.50704c0.70979,-1.5433 2.01866,-2.57867 3.77684,-3.00194c0.46884,-0.11721 1.8819,-0.12372 31.32172,-0.14326c20.21261,-0.01303 31.08079,0.00651 31.54964,0.04558c1.24375,0.11721 2.14889,0.43629 3.06054,1.08096c0.89863,0.63816 1.66051,1.77121 2.01866,3.00845c0.32559,1.107 0.28652,2.41587 -0.09768,3.60102c-0.13675,0.42327 -1.3805,2.8131 -4.67547,8.99279c-8.48487,15.92785 -22.32243,41.90339 -24.64714,46.25978c-0.89211,1.68655 -1.75167,3.2559 -1.90144,3.49032c-0.71629,1.107 -1.96656,1.9926 -3.32101,2.33773z" data-paper-data="{&quot;index&quot;:null}" fill="#ffffff"/><text transform="translate(249.07243,194.31951) rotate(-180) scale(1.40876,-1.40876)" font-size="40" xml:space="preserve" fill="#000000" fill-rule="nonzero" stroke="none" stroke-width="1" stroke-linecap="butt" stroke-linejoin="miter" stroke-miterlimit="10" stroke-dasharray="" stroke-dashoffset="0" font-family="Sans Serif" font-weight="normal" text-anchor="start" style="mix-blend-mode: normal"><tspan x="0" dy="0">-</tspan></text></g></g></svg>