<svg version="1.1" xmlns="http://www.w3.org/2000/svg" xmlns:xlink="http://www.w3.org/1999/xlink" width="72.42939" height="78.42098" viewBox="0,0,72.42939,78.42098"><g transform="translate(-203.7853,-138.68685)"><g data-paper-data="{&quot;isPaintingLayer&quot;:true}" fill-rule="nonzero" stroke="none" stroke-width="1" stroke-linecap="butt" stroke-linejoin="miter" stroke-miterlimit="10" stroke-dasharray="" stroke-dashoffset="0" style="mix-blend-mode: normal"><path d="M241.35215,143.76918c1.35445,0.34513 2.60472,1.23073 3.32101,2.33773c0.14977,0.23442 1.00933,1.80377 1.90144,3.49032c2.32471,4.35639 16.16227,30.33193 24.64714,46.25978c3.29497,6.17969 4.53872,8.56952 4.67547,8.99279c0.3842,1.18515 0.42327,2.49402 0.09768,3.60102c-0.35815,1.23724 -1.12003,2.37029 -2.01866,3.00845c-0.91165,0.64467 -1.81679,0.96375 -3.06054,1.08096c-0.46885,0.03907 -11.33703,0.05861 -31.54964,0.04558c-29.43982,-0.01954 -30.85288,-0.02605 -31.32172,-0.14326c-1.75818,-0.42327 -3.06705,-1.45864 -3.77684,-3.00194c-0.39722,-0.84653 -0.48838,-1.34143 -0.48187,-2.50704c0.00651,-0.90514 0.02605,-1.07445 0.18233,-1.59539c0.18233,-0.6056 0.40373,-1.07445 1.30887,-2.76751c0.29303,-0.5535 2.82612,-5.33316 5.61317,-10.61422c2.79356,-5.28106 7.35833,-13.9157 10.14537,-19.17723c2.78054,-5.26804 6.99367,-13.23848 9.36396,-17.71208c2.36378,-4.48011 4.42802,-8.35463 4.59081,-8.6151c0.35815,-0.58606 1.13305,-1.41957 1.67353,-1.80377c0.58606,-0.42327 1.43259,-0.80095 2.09029,-0.95072c0.72932,-0.15628 1.8233,-0.13024 2.59821,0.07163z" fill="#ffffff"/><text transform="translate(256.11619,199.49832) rotate(-180) scale(1.40876,-1.40876)" font-size="40" xml:space="preserve" data-paper-data="{&quot;index&quot;:null}" fill="#000000" fill-rule="nonzero" stroke="none" stroke-width="1" stroke-linecap="butt" stroke-linejoin="miter" stroke-miterlimit="10" stroke-dasharray="" stroke-dashoffset="0" font-family="Sans Serif" font-weight="normal" text-anchor="start" style="mix-blend-mode: normal"><tspan x="0" dy="0">+</tspan></text></g></g></svg>